<svg preserveAspectRatio="none" width="100%" height="100%" overflow="visible" style="display: block;" viewBox="0 0 17 21.4141" fill="none" xmlns="http://www.w3.org/2000/svg">
<g id="Vector">
<path d="M6.20703 12.4141L3.41406 15.207H16.5V17.207H3.41406L6.20703 20L4.79297 21.4141L0.292969 16.9141C0.105435 16.7265 2.53005e-07 16.4722 0 16.207C1.99901e-06 15.9749 0.0807264 15.7512 0.226562 15.5732L0.292969 15.5L4.79297 11L6.20703 12.4141Z" fill="var(--fill-0, #101010)"/>
<path d="M16.707 4.5L16.7734 4.57324C16.9192 4.75117 17 4.97501 17 5.20703C17 5.47217 16.8945 5.72654 16.707 5.91406L12.207 10.4141L10.793 9L13.5859 6.20703H0.5V4.20703H13.5859L10.793 1.41406L12.207 0L16.707 4.5Z" fill="var(--fill-0, #101010)"/>
</g>
</svg>
