<svg preserveAspectRatio="none" width="100%" height="100%" overflow="visible" style="display: block;" viewBox="0 0 21.0008 18.3173" fill="none" xmlns="http://www.w3.org/2000/svg">
<path id="Vector" fill-rule="evenodd" clip-rule="evenodd" d="M10.725 0.0125804L10.9477 0.0506664L11.0844 0.0887523C11.3987 0.190099 11.673 0.375135 11.8891 0.511604L20.5346 5.97156C20.9107 6.20938 21.085 6.66806 20.9613 7.09559C20.8375 7.523 20.4454 7.81707 20.0004 7.81727H18.5004V16.3173H20.5004V18.3173H0.500402V16.3173H2.5004V7.81727H1.0004C0.555326 7.81727 0.163365 7.52303 0.0394644 7.09559C-0.0842843 6.66791 0.0898058 6.20932 0.466222 5.97156L9.11173 0.511604C9.35865 0.35564 9.68106 0.136062 10.0531 0.0506664C10.2736 0.000178922 10.5013 -0.0126982 10.725 0.0125804ZM4.5004 7.81727V16.3173H9.5004V7.81727H4.5004ZM11.5004 7.81727V16.3173H16.5004V7.81727H11.5004ZM10.4945 2.00965C10.4305 2.04464 10.3448 2.09798 10.1801 2.20203L4.45646 5.81727H16.5443L10.8207 2.20203C10.6561 2.09807 10.5703 2.04466 10.5063 2.00965C10.5043 2.0086 10.5022 2.00678 10.5004 2.00574C10.4986 2.00671 10.4965 2.00852 10.4945 2.00965Z" fill="var(--fill-0, #101010)"/>
</svg>
