<svg width="17" height="10" viewBox="0 0 17 10" fill="none" xmlns="http://www.w3.org/2000/svg">
<path d="M13.5761 0.617317C13.5 0.801088 13.5 1.03406 13.5 1.5V8.5C13.5 8.96594 13.5 9.19891 13.5761 9.38268C13.6776 9.62771 13.8723 9.82239 14.1173 9.92388C14.3011 10 14.5341 10 15 10C15.4659 10 15.6989 10 15.8827 9.92388C16.1277 9.82239 16.3224 9.62771 16.4239 9.38268C16.5 9.19891 16.5 8.96594 16.5 8.5V1.5C16.5 1.03406 16.5 0.801088 16.4239 0.617317C16.3224 0.372288 16.1277 0.177614 15.8827 0.0761205C15.6989 0 15.4659 0 15 0C14.5341 0 14.3011 0 14.1173 0.0761205C13.8723 0.177614 13.6776 0.372288 13.5761 0.617317Z" fill="white" fill-opacity="0.95"/>
<path d="M9 3.5C9 3.03406 9 2.80109 9.07612 2.61732C9.17761 2.37229 9.37229 2.17761 9.61732 2.07612C9.80109 2 10.0341 2 10.5 2C10.9659 2 11.1989 2 11.3827 2.07612C11.6277 2.17761 11.8224 2.37229 11.9239 2.61732C12 2.80109 12 3.03406 12 3.5V8.5C12 8.96594 12 9.19891 11.9239 9.38268C11.8224 9.62771 11.6277 9.82239 11.3827 9.92388C11.1989 10 10.9659 10 10.5 10C10.0341 10 9.80109 10 9.61732 9.92388C9.37229 9.82239 9.17761 9.62771 9.07612 9.38268C9 9.19891 9 8.96594 9 8.5V3.5Z" fill="white" fill-opacity="0.95"/>
<path d="M4.57612 4.61732C4.5 4.80109 4.5 5.03406 4.5 5.5V8.5C4.5 8.96594 4.5 9.19891 4.57612 9.38268C4.67761 9.62771 4.87229 9.82239 5.11732 9.92388C5.30109 10 5.53406 10 6 10C6.46594 10 6.69891 10 6.88268 9.92388C7.12771 9.82239 7.32239 9.62771 7.42388 9.38268C7.5 9.19891 7.5 8.96594 7.5 8.5V5.5C7.5 5.03406 7.5 4.80109 7.42388 4.61732C7.32239 4.37229 7.12771 4.17761 6.88268 4.07612C6.69891 4 6.46594 4 6 4C5.53406 4 5.30109 4 5.11732 4.07612C4.87229 4.17761 4.67761 4.37229 4.57612 4.61732Z" fill="white" fill-opacity="0.95"/>
<path d="M0.0761205 6.11732C0 6.30109 0 6.53406 0 7V8.5C0 8.96594 0 9.19891 0.0761205 9.38268C0.177614 9.62771 0.372288 9.82239 0.617317 9.92388C0.801088 10 1.03406 10 1.5 10C1.96594 10 2.19891 10 2.38268 9.92388C2.62771 9.82239 2.82239 9.62771 2.92388 9.38268C3 9.19891 3 8.96594 3 8.5V7C3 6.53406 3 6.30109 2.92388 6.11732C2.82239 5.87229 2.62771 5.67761 2.38268 5.57612C2.19891 5.5 1.96594 5.5 1.5 5.5C1.03406 5.5 0.801088 5.5 0.617317 5.57612C0.372288 5.67761 0.177614 5.87229 0.0761205 6.11732Z" fill="white" fill-opacity="0.95"/>
</svg>
