<svg width="14" height="10" viewBox="0 0 14 10" fill="none" xmlns="http://www.w3.org/2000/svg">
<g clip-path="url(#clip0_44_11)">
<path d="M10.0196 6.69643C10.1347 6.79943 10.3065 6.80043 10.4156 6.69093L11.4741 5.62843C11.5891 5.51293 11.5896 5.32043 11.4701 5.20993C10.2936 4.12443 8.72404 3.46143 7.00012 3.46143C5.27619 3.46143 3.70667 4.12443 2.53016 5.20993C2.41062 5.32043 2.41111 5.51293 2.52618 5.62843L3.58464 6.69093C3.69372 6.80043 3.86557 6.79943 3.98063 6.69643C4.78357 5.97693 5.84153 5.53843 7.00012 5.53843C8.1587 5.53843 9.21667 5.97693 10.0196 6.69643Z" fill="white" fill-opacity="0.95"/>
<path d="M9.02724 7.66109C9.15226 7.76609 9.15127 7.96159 9.03571 8.07759L7.20469 9.91559C7.09261 10.0281 6.91031 10.0281 6.79824 9.91559L4.96722 8.07759C4.85166 7.96159 4.85016 7.76609 4.97569 7.66109C5.52409 7.20059 6.2304 6.92308 7.00146 6.92308C7.77252 6.92308 8.47833 7.20059 9.02724 7.66109Z" fill="white" fill-opacity="0.95"/>
<path d="M12.4572 4.24601C12.5703 4.35251 12.7446 4.35301 12.8547 4.24301L13.9146 3.17901C14.0287 3.06401 14.0292 2.87451 13.9116 2.76301C12.1095 1.0505 9.67729 0 7 0C4.32271 0 1.89048 1.0505 0.0883531 2.76301C-0.0291987 2.87451 -0.0287005 3.06401 0.0853645 3.17901L1.14532 4.24301C1.2554 4.35301 1.42974 4.35251 1.54281 4.24601C2.97186 2.90151 4.89154 2.07701 7 2.07701C9.10846 2.07701 11.0281 2.90151 12.4572 4.24601Z" fill="white" fill-opacity="0.95"/>
</g>
<defs>
<clipPath id="clip0_44_11">
<rect width="14" height="10" fill="white"/>
</clipPath>
</defs>
</svg>
