<svg preserveAspectRatio="none" width="100%" height="100%" overflow="visible" style="display: block;" viewBox="0 0 131 131" fill="none" xmlns="http://www.w3.org/2000/svg">
<g id="Layer_1" clip-path="url(#clip0_44_5288)">
<path id="Vector" d="M9.52495 124.841L49.5199 6.15894H105.714L65.7187 124.841H9.52495Z" fill="var(--fill-0, white)"/>
<path id="Vector_2" d="M66.1457 66.9214C64.6862 74.0576 57.7939 79.8455 50.7557 79.8455C43.7174 79.8455 39.1928 74.0576 40.6524 66.9214C42.1119 59.7852 49.0042 53.9973 56.0424 53.9973C63.0807 53.9973 67.6053 59.7852 66.1457 66.9214Z" stroke="var(--stroke-0, black)" stroke-width="2.01919" stroke-linejoin="round"/>
<path id="Vector_3" d="M46.6046 67.152L49.5399 71.2627L58.9783 62.5151" stroke="var(--stroke-0, black)" stroke-width="2.01919" stroke-linejoin="round"/>
<path id="Vector_4" d="M99.5257 35.312L72.2144 34.4908L69.2662 35.312L64.5038 38.679L63.9692 41.9967L63.7586 43.8855V47.466L66.0103 51.5228L65.7673 52.6889L61.8796 55.8259L60.5513 61.4595L61.4422 65.4177L64.5362 71.544L61.6204 74.6974L61.507 77.7031L61.0858 80.643L62.6571 85.6853L64.6658 89.5121L61.4098 92.1564L60.5837 97.3629L64.2608 106.413L70.4001 109.665L73.8019 110.502L80.3138 110.995L99.5257 35.312Z" fill="var(--fill-0, black)"/>
<path id="Vector_5" d="M106.006 28.1677H119.661C122.026 28.1677 124.116 26.6402 124.894 24.3737L130.255 8.72135H112.566L106.022 28.1677H106.006Z" fill="var(--fill-0, white)"/>
<path id="Vector_6" d="M125.46 -5.20364e-05H110.428C111.027 0.426979 111.561 0.952556 111.999 1.5931C113.23 3.33407 113.554 5.46923 112.938 7.50584H130.644L130.676 7.40729C131.907 3.77753 129.234 -5.20364e-05 125.444 -5.20364e-05L125.46 -5.20364e-05Z" fill="var(--fill-0, white)"/>
<path id="Vector_7" d="M115.919 34.9508L117.782 29.3994H105.584L103.916 34.3759H102.636L111.756 7.30872C112.955 3.72823 110.331 0.0163408 106.605 0.0163408H49.0667C46.7341 0.0163408 44.6768 1.51095 43.9155 3.74465L36.0915 26.9686C34.7793 20.4974 31.1508 15.061 27.1335 9.70666C24.0233 5.55132 19.6658 2.90701 14.8872 2.25004C10.6755 1.67519 6.41518 2.6935 3.45079 4.97647C-2.36459 9.47672 0.373012 15.6194 2.93243 19.8404C7.67869 27.6748 10.1895 33.3905 10.1895 36.3633C10.1895 38.6627 9.59015 40.9292 8.44003 42.933C4.98968 48.9607 3.15921 55.8424 3.15921 62.8228V126.089H3.24021C3.53179 128.766 5.73483 131.016 8.63442 131.016H66.1727C68.5053 131.016 70.5626 129.522 71.3239 127.288L76.6048 111.636H77.8845L73.8509 123.625H86.1459L90.1794 111.636H96.5293C98.295 111.636 99.7205 113.097 99.7205 114.871H100.935C100.935 112.408 98.9591 110.404 96.5293 110.404H75.0497C67.6144 110.404 61.556 104.278 61.556 96.7225C61.556 91.5488 64.5528 89.1673 67.8898 88.5432C67.0636 89.8407 66.3995 91.2039 65.6867 93.0106C65.055 94.6202 65.2332 96.4432 66.2051 97.8886C67.177 99.3503 68.7969 100.221 70.5302 100.221H77.7873V99.5967C77.7873 94.8994 80.8326 89.3151 81.3672 88.3625H111.918C119.37 88.3625 125.412 94.5052 125.412 102.044V102.684C125.412 117.614 113.425 129.768 98.7 129.768H83.2625C83.9914 129.16 84.5584 128.356 84.8824 127.419L85.7409 124.857H73.446L72.4902 127.682C72.0205 129.062 71.1457 130.212 70.028 131.016H79.9255C79.9255 131.016 79.9255 131.016 79.9417 131.016H98.7C114.105 131.016 126.627 118.32 126.627 102.701V49.2892C126.627 42.4731 122.107 36.741 115.936 34.9508H115.919ZM4.39032 121.03V62.8063C4.39032 56.0395 6.156 49.3877 9.50916 43.5407C10.7565 41.3562 11.4206 38.8762 11.4206 36.3633C11.4206 33.1112 8.926 27.3299 3.98535 19.1999C0.243421 13.0244 0.308216 8.93472 4.19594 5.9455C6.90114 3.8432 10.8375 2.92344 14.7414 3.44901C19.1961 4.05671 23.262 6.5532 26.1778 10.4293C29.9683 15.488 33.3862 20.6124 34.7631 26.6401C35.1843 28.9395 34.4392 33.8832 31.3938 37.7593C29.7901 39.7959 26.9391 42.2267 22.4034 42.2267V43.4585C26.2588 43.4585 29.6119 41.8325 32.1227 38.794L4.39032 121.03ZM60.3249 96.706C60.3249 103.736 65.1522 109.615 71.5993 111.192L66.7235 125.678C66.6425 125.908 66.4157 126.073 66.1727 126.073H8.63442C8.63442 126.073 8.34284 126.073 8.16465 125.826C7.98647 125.58 8.06746 125.366 8.08366 125.301L48.516 5.32138C48.597 5.07502 48.8237 4.9272 49.0667 4.9272H106.605C106.605 4.9272 106.897 4.9272 107.075 5.17356C107.253 5.41993 107.172 5.63344 107.156 5.69914L97.5013 34.3595H72.1825C66.9664 34.3595 62.7223 38.6627 62.7223 43.9513C62.7223 47.039 64.0183 50.3896 65.4599 52.689C62.1392 54.0029 60.3249 57.0086 60.3249 61.5252C60.3249 64.7444 61.313 67.7993 63.1921 70.3615C63.3865 70.6243 63.5971 70.8871 63.8077 71.1334C61.5722 72.7594 60.3249 75.4202 60.3249 78.9678C60.3249 82.2691 61.556 85.5704 63.9859 88.7567C61.8476 90.2184 60.3249 92.7478 60.3249 96.6896V96.706ZM82.9223 35.6077C81.9666 37.3816 79.7149 41.9968 79.5043 46.2671H73.446C72.1177 46.2671 70.8704 45.5937 70.1252 44.4768C69.3801 43.36 69.2343 41.9968 69.7364 40.7485C70.595 38.597 71.3725 37.1188 72.4417 35.5913H82.9223V35.6077ZM76.5562 98.9726H70.4978C69.1695 98.9726 67.9222 98.2992 67.177 97.1823C66.4319 96.0655 66.2861 94.7023 66.7883 93.454C67.6306 91.3353 68.4081 89.8571 69.4611 88.3625C69.5745 88.3625 69.6878 88.3625 69.8012 88.3625H79.9579C78.986 90.1692 76.7667 94.7351 76.5724 98.989L76.5562 98.9726ZM125.379 96.1148C123.112 90.8261 117.912 87.1143 111.886 87.1143H69.785C68.1652 87.1143 66.5129 87.4427 65.0388 88.1654C62.7223 85.1598 61.5398 82.072 61.5398 79.0007C61.5398 74.3033 63.9049 71.3798 68.068 70.7721C67.1608 72.1682 66.4319 73.5807 65.6543 75.5351C65.0226 77.1447 65.2008 78.9678 66.1727 80.4132C67.1446 81.8749 68.7645 82.7454 70.4978 82.7454H77.7549V82.1213C77.7549 76.9969 81.3834 70.7885 81.432 70.7228L81.2862 70.6407H111.886C119.337 70.6407 125.379 76.7834 125.379 84.3221V96.1148ZM69.623 70.6407C69.623 70.6407 69.7364 70.6407 69.785 70.6407H80.0713C79.1966 72.2339 76.7667 77.0462 76.54 81.5136H70.4816C69.1533 81.5136 67.906 80.8402 67.1608 79.7233C66.4157 78.6065 66.2699 77.2433 66.7721 75.995C67.663 73.7613 68.4567 72.2503 69.6069 70.6571L69.623 70.6407ZM125.379 78.393C123.112 73.1044 117.912 69.3925 111.886 69.3925H69.785C67.8736 69.3925 66.2375 69.8031 64.8606 70.5093C64.6176 70.2301 64.3746 69.9509 64.164 69.6388C62.447 67.2737 61.5398 64.4652 61.5398 61.5252C61.5398 56.6472 63.6943 53.888 67.9384 53.2967C67.0798 54.627 66.3995 56.0067 65.6705 57.8626C65.0388 59.4722 65.217 61.2953 66.1889 62.7406C67.1608 64.2024 68.7807 65.0729 70.514 65.0729H77.7711V64.4488C77.7711 59.6857 80.8974 54.0029 81.3834 53.1653H111.902C119.353 53.1653 125.396 59.308 125.396 66.8467V78.3765L125.379 78.393ZM69.4773 53.1981C69.5907 53.1981 69.6716 53.1817 69.785 53.1817H79.9741C79.0184 54.9555 76.7667 59.5708 76.5562 63.8411H70.4978C69.1695 63.8411 67.9222 63.1677 67.177 62.0508C66.4319 60.934 66.2861 59.5708 66.7883 58.3225C67.6468 56.1874 68.4081 54.7092 69.4773 53.1817V53.1981ZM125.379 60.9504C123.112 55.6618 117.912 51.9499 111.886 51.9499H69.785C68.6349 51.9499 67.6144 52.1141 66.6749 52.3441C65.2656 50.2089 63.9373 46.9405 63.9373 43.9677C63.9373 39.8124 66.9502 36.3797 70.8866 35.7391C70.0442 37.0695 69.3477 38.4491 68.6187 40.3051C67.987 41.9147 68.1652 43.7378 69.1371 45.1831C70.109 46.6448 71.7289 47.5153 73.4622 47.5153H80.7193V46.8912C80.7193 42.1282 83.8456 36.4454 84.3316 35.6077H111.902C119.353 35.6077 125.396 41.7504 125.396 49.2892V60.9504H125.379Z" fill="var(--fill-0, white)"/>
</g>
<defs>
<clipPath id="clip0_44_5288">
<rect width="131" height="131" fill="white"/>
</clipPath>
</defs>
</svg>
