<svg preserveAspectRatio="none" width="100%" height="100%" overflow="visible" style="display: block;" viewBox="0 0 12 17.524" fill="none" xmlns="http://www.w3.org/2000/svg">
<path id="SF Symbol / lock" d="M1.72455 17.524H10.2754C11.4341 17.524 12 16.9491 12 15.6916V9.0988C12 7.96707 11.5329 7.38323 10.5719 7.28443V5.02096C10.5719 1.63473 8.35329 0 6 0C3.64671 0 1.42814 1.63473 1.42814 5.02096V7.32934C0.547904 7.46407 0 8.03892 0 9.0988V15.6916C0 16.9491 0.565868 17.524 1.72455 17.524ZM2.87425 4.83234C2.87425 2.57784 4.32036 1.38323 6 1.38323C7.67964 1.38323 9.12575 2.57784 9.12575 4.83234V7.27545L2.87425 7.28443V4.83234Z" fill="var(--fill-0, white)"/>
</svg>
