<svg preserveAspectRatio="none" width="100%" height="100%" overflow="visible" style="display: block;" viewBox="0 0 17 11.8338" fill="none" xmlns="http://www.w3.org/2000/svg">
<path id="Wifi" d="M6.11524 8.91879C7.53498 7.69318 9.61438 7.69332 11.0342 8.91879C11.1056 8.98473 11.1475 9.07831 11.1494 9.1766C11.1514 9.27483 11.1136 9.36949 11.0449 9.43832L8.8213 11.7284C8.75619 11.7956 8.66779 11.8337 8.5752 11.8338C8.48249 11.8338 8.39331 11.7957 8.32813 11.7284L6.1045 9.43832C6.03589 9.36946 5.99803 9.27479 6.00001 9.1766C6.00204 9.07831 6.04376 8.98467 6.11524 8.91879ZM3.10938 6.17855C6.16846 3.27396 10.9058 3.27396 13.9649 6.17855C14.0338 6.24665 14.0733 6.34035 14.0742 6.43832C14.0751 6.53617 14.0373 6.63061 13.9697 6.70004L12.6846 8.02523C12.5521 8.16047 12.338 8.16381 12.2022 8.03207C11.1977 7.10362 9.89125 6.58868 8.53614 6.58871C7.18182 6.58928 5.87597 7.10416 4.87208 8.03207C4.73621 8.16377 4.52208 8.16055 4.38966 8.02523L3.1045 6.70004C3.03676 6.6307 2.9992 6.53623 3.00001 6.43832C3.00091 6.34037 3.04042 6.24664 3.10938 6.17855ZM0.10743 3.44222C4.79929 -1.14744 12.2007 -1.14737 16.8926 3.44222C16.9604 3.5103 16.9993 3.60297 17 3.70004C17.0006 3.79706 16.9633 3.89085 16.8965 3.9598L15.6094 5.28597C15.4769 5.42192 15.2616 5.42361 15.127 5.28988C13.3393 3.55511 10.9666 2.58784 8.50001 2.58773C6.03338 2.58785 3.66078 3.55511 1.87305 5.28988C1.7385 5.42373 1.52303 5.42211 1.39063 5.28597L0.103523 3.9598C0.0366653 3.89079 -0.000617864 3.7971 7.7481e-06 3.70004C0.000739244 3.60295 0.0395588 3.51027 0.10743 3.44222Z" fill="var(--fill-0, white)"/>
</svg>
